<?xml version="1.0" encoding="UTF-8"?>
<svg id="Layer_1" data-name="Layer 1" xmlns="http://www.w3.org/2000/svg" viewBox="0 0 290.03 72.51">
  <defs>
    <style>
      .cls-1 {
        fill: #4472c4;
      }

      .cls-2 {
        fill: #34d399;
      }

      .cls-3 {
        fill: #1f4e78;
      }

      .cls-4 {
        fill: #e5e7eb;
      }
    </style>
  </defs>
  <path class="cls-4" d="M36.25,0h217.52c20.02,0,36.25,16.23,36.25,36.25h0c0,20.02-16.23,36.25-36.25,36.25H36.25C16.23,72.51,0,56.28,0,36.25h0C0,16.23,16.23,0,36.25,0Z"/>
  <path class="cls-2" d="M36.25,0h108.76c20.02,0,36.25,16.23,36.25,36.25h0c0,20.02-16.23,36.25-36.25,36.25H36.25C16.23,72.51,0,56.28,0,36.25h0C0,16.23,16.23,0,36.25,0Z"/>
  <g>
    <polygon class="cls-3" points="181.27 36.25 200.6 16.92 200.6 55.59 181.27 36.25"/>
    <polygon class="cls-1" points="200.6 36.25 219.94 16.92 219.94 55.59 200.6 36.25"/>
  </g>
</svg>